<?xml version="1.0" encoding="utf-8"?>
<!-- Generator: Adobe Illustrator 16.0.0, SVG Export Plug-In . SVG Version: 6.00 Build 0)  -->
<!DOCTYPE svg PUBLIC "-//W3C//DTD SVG 1.1//EN" "http://www.w3.org/Graphics/SVG/1.1/DTD/svg11.dtd">
<svg version="1.1" id="Layer_1" xmlns="http://www.w3.org/2000/svg" xmlns:xlink="http://www.w3.org/1999/xlink" x="0px" y="0px"
	 width="284.5px" height="128.3px" viewBox="0 0 284.5 128.3" style="enable-background:new 0 0 284.5 128.3;" xml:space="preserve"
	>
<style type="text/css">
<![CDATA[
	.st0{fill:none;stroke:#000000;stroke-width:3;stroke-miterlimit:10;}
	.st1{fill:#FFFFFF;}
	.st2{fill:none;stroke:#000000;stroke-width:6;stroke-miterlimit:10;}
]]>
</style>
<g>
	<g>
		<path class="st1" d="M58.4,102.7c-9.8,0-18.9-3.8-25.8-10.7c-14.2-14.2-14.2-37.4,0-51.6c6.9-6.9,16.1-10.7,25.8-10.7
			c9.8,0,18.9,3.8,25.8,10.7c14.2,14.2,14.2,37.4,0,51.6C77.4,98.9,68.2,102.7,58.4,102.7z M58.4,35.7c-8.2,0-15.8,3.2-21.6,8.9
			C25,56.5,25,75.9,36.9,87.8c5.8,5.8,13.4,8.9,21.6,8.9s15.8-3.2,21.6-8.9c11.9-11.9,11.9-31.3,0-43.2
			C74.2,38.8,66.6,35.7,58.4,35.7z"/>
	</g>
	<g>
		<path class="st1" d="M11.9,115c-0.8,0-1.2-0.4-1.6-0.7c-1.1-1.1-3.5-3.5,19.8-29.5l2.2,2c-13.4,15-18.3,22.3-19.4,24.9
			c4.9-2,23.1-16.5,48.8-42.2c25.7-25.7,40.2-43.9,42.2-48.8c-2.6,1.1-10.2,6.1-25.5,20l-2-2.2c26.5-23.9,28.9-21.5,30.1-20.3
			c1.1,1.1,2.8,2.8-10.6,18.9c-8.1,9.7-19.5,22-32.1,34.6s-24.9,24-34.6,32.1C18,113,13.8,115,11.9,115z"/>
	</g>
</g>
<g>
	<path class="st1" d="M121.2,78.7c2.1,0,3.7-0.5,4.8-1.5c1.1-1,1.6-2.2,1.6-3.7c0-1.3-0.4-2.4-1.3-3.2c-0.8-0.8-2.2-1.5-4-2.1
		l-4.2-1.2c-2-0.6-3.6-1.5-4.8-2.7c-1.2-1.2-1.7-2.8-1.7-4.8c0-1.2,0.2-2.3,0.7-3.3c0.5-1,1.1-1.8,2-2.5c0.9-0.7,1.9-1.2,3.1-1.6
		c1.2-0.4,2.5-0.5,4-0.5c1.3,0,2.5,0.1,3.6,0.3s2.1,0.5,2.9,0.9c0.8,0.4,1.4,0.8,1.9,1.2c0.4,0.4,0.7,0.9,0.7,1.4
		c0,0.4-0.1,0.8-0.3,1.1c-0.2,0.3-0.5,0.6-0.9,0.8c-0.8-0.6-1.9-1.2-3.2-1.7c-1.3-0.5-2.8-0.7-4.4-0.7c-1.9,0-3.3,0.4-4.4,1.2
		c-1.1,0.8-1.6,1.9-1.6,3.3c0,1.1,0.4,2,1.1,2.7c0.8,0.7,2,1.3,3.8,1.8l2.9,0.9c2.5,0.7,4.5,1.8,5.9,3.1c1.4,1.3,2.2,3.2,2.2,5.5
		c0,2.5-0.9,4.6-2.7,6.1c-1.8,1.6-4.4,2.3-7.7,2.3c-1.5,0-2.8-0.1-4-0.4s-2.2-0.6-3.1-1c-0.8-0.4-1.5-0.9-2-1.4
		c-0.5-0.5-0.7-1-0.7-1.5c0-0.5,0.2-1,0.5-1.4c0.3-0.4,0.7-0.6,1.2-0.8c0.3,0.4,0.8,0.7,1.3,1.1c0.5,0.4,1.1,0.7,1.8,1
		c0.7,0.3,1.4,0.5,2.2,0.7C119.3,78.6,120.2,78.7,121.2,78.7z"/>
	<path class="st1" d="M145.8,58.6c2.8,0,5,0.6,6.6,1.9c1.6,1.2,2.4,3.2,2.4,5.9v11.3c0,0.7-0.1,1.2-0.4,1.6c-0.3,0.4-0.7,0.7-1.2,1
		c-0.8,0.4-1.8,0.8-3,1.2c-1.3,0.3-2.7,0.5-4.3,0.5c-3,0-5.3-0.6-6.9-1.8c-1.6-1.2-2.5-2.9-2.5-5.1c0-2.1,0.7-3.7,2.1-4.7
		c1.4-1.1,3.3-1.7,5.8-2l6.8-0.7v-1.3c0-1.6-0.5-2.8-1.4-3.5c-1-0.7-2.2-1.1-3.9-1.1c-1.3,0-2.6,0.2-3.8,0.6
		c-1.2,0.4-2.2,0.8-3.2,1.3c-0.3-0.2-0.5-0.5-0.7-0.8c-0.2-0.3-0.3-0.6-0.3-1c0-0.4,0.1-0.8,0.3-1.1c0.2-0.3,0.6-0.6,1.1-0.8
		c0.9-0.4,1.8-0.8,3-1C143.3,58.7,144.5,58.6,145.8,58.6z M145.8,78.8c1.3,0,2.4-0.1,3.3-0.4c0.9-0.3,1.5-0.5,1.9-0.8v-6.9l-5.9,0.6
		c-1.7,0.2-2.9,0.5-3.7,1.1c-0.8,0.6-1.2,1.5-1.2,2.6c0,1.2,0.5,2.1,1.4,2.8C142.6,78.5,144,78.8,145.8,78.8z"/>
	<path class="st1" d="M169.3,81.9c-2.2,0-4-0.5-5.4-1.5c-1.4-1-2.1-2.6-2.1-4.9V52.8c0.2-0.1,0.4-0.1,0.7-0.2
		c0.3-0.1,0.7-0.1,1.1-0.1c1.3,0,2,0.6,2,1.7v5.5h7.8c0.1,0.2,0.2,0.4,0.3,0.6c0.1,0.3,0.1,0.6,0.1,0.9c0,1.1-0.5,1.6-1.4,1.6h-6.8
		v12.4c0,1.3,0.4,2.2,1.1,2.7c0.7,0.5,1.7,0.8,3,0.8c0.5,0,1.1-0.1,1.8-0.3c0.7-0.2,1.2-0.4,1.7-0.7c0.2,0.2,0.4,0.4,0.5,0.7
		c0.2,0.3,0.2,0.6,0.2,1c0,0.7-0.4,1.3-1.2,1.7C171.9,81.7,170.8,81.9,169.3,81.9z"/>
	<path class="st1" d="M181.5,72.5c0.9,4.2,3.6,6.3,8.2,6.3c1.3,0,2.5-0.2,3.6-0.7c1.1-0.4,1.9-0.9,2.6-1.4c0.8,0.4,1.1,1.1,1.1,1.8
		c0,0.4-0.2,0.9-0.6,1.3c-0.4,0.4-0.9,0.8-1.6,1.1c-0.7,0.3-1.5,0.6-2.4,0.8c-0.9,0.2-1.9,0.3-2.9,0.3c-3.7,0-6.6-1-8.8-3
		c-2.1-2-3.2-4.9-3.2-8.8c0-1.8,0.3-3.4,0.8-4.8c0.5-1.4,1.3-2.6,2.2-3.6c0.9-1,2.1-1.7,3.4-2.3c1.3-0.5,2.7-0.8,4.2-0.8
		c1.4,0,2.8,0.2,4,0.7c1.2,0.5,2.3,1.2,3.1,2c0.9,0.9,1.6,1.9,2.1,3.1c0.5,1.2,0.7,2.5,0.7,3.9c0,0.7-0.2,1.2-0.5,1.5
		c-0.3,0.3-0.8,0.5-1.3,0.5L181.5,72.5z M188.1,61.7c-1.9,0-3.5,0.7-4.8,2c-1.3,1.4-1.9,3.3-2,5.8l13.1-1.8
		c-0.2-1.7-0.8-3.2-1.8-4.3C191.5,62.3,190,61.7,188.1,61.7z M192.2,48.5c0.7,0,1.3,0.2,1.7,0.6c0.4,0.4,0.6,0.8,0.6,1.2
		c0,0.4-0.1,0.8-0.3,1.1c-0.2,0.3-0.5,0.6-1,1l-4.3,4.2c-0.6,0-1.1-0.2-1.5-0.5c-0.4-0.3-0.6-0.7-0.6-1.1c0-0.3,0.1-0.5,0.2-0.7
		c0.2-0.2,0.3-0.4,0.5-0.6L192.2,48.5z"/>
	<path class="st1" d="M207.1,81.4c-0.3,0.1-0.7,0.1-1,0.1c-1.4,0-2.1-0.6-2.1-1.7V50.4c0.2-0.1,0.4-0.1,0.7-0.2
		c0.3-0.1,0.7-0.1,1-0.1c1.4,0,2.1,0.6,2.1,1.7v29.4C207.6,81.3,207.4,81.3,207.1,81.4z"/>
	<path class="st1" d="M215.1,52.3c0-0.7,0.2-1.2,0.7-1.7c0.5-0.5,1.1-0.7,1.8-0.7c0.7,0,1.3,0.2,1.8,0.7c0.4,0.5,0.7,1,0.7,1.7
		c0,0.7-0.2,1.2-0.7,1.7c-0.4,0.5-1,0.7-1.8,0.7c-0.7,0-1.3-0.2-1.8-0.7C215.3,53.5,215.1,52.9,215.1,52.3z M219.5,81.2
		c-0.2,0.1-0.4,0.1-0.7,0.2c-0.3,0.1-0.7,0.1-1.1,0.1c-1.4,0-2.1-0.6-2.1-1.7V59.3c0.2-0.1,0.4-0.1,0.7-0.2c0.3-0.1,0.7-0.1,1.1-0.1
		c1.3,0,2,0.6,2,1.8V81.2z"/>
	<path class="st1" d="M234.5,81.9c-2.2,0-4-0.5-5.4-1.5c-1.4-1-2.1-2.6-2.1-4.9V52.8c0.2-0.1,0.4-0.1,0.7-0.2
		c0.3-0.1,0.7-0.1,1.1-0.1c1.3,0,2,0.6,2,1.7v5.5h7.8c0.1,0.2,0.2,0.4,0.3,0.6c0.1,0.3,0.1,0.6,0.1,0.9c0,1.1-0.5,1.6-1.4,1.6h-6.8
		v12.4c0,1.3,0.4,2.2,1.1,2.7c0.7,0.5,1.7,0.8,3,0.8c0.5,0,1.1-0.1,1.8-0.3c0.7-0.2,1.2-0.4,1.7-0.7c0.2,0.2,0.4,0.4,0.5,0.7
		c0.2,0.3,0.2,0.6,0.2,1c0,0.7-0.4,1.3-1.2,1.7C237.1,81.7,235.9,81.9,234.5,81.9z"/>
	<path class="st1" d="M246.7,72.5c0.9,4.2,3.6,6.3,8.2,6.3c1.3,0,2.5-0.2,3.6-0.7c1.1-0.4,1.9-0.9,2.6-1.4c0.8,0.4,1.1,1.1,1.1,1.8
		c0,0.4-0.2,0.9-0.6,1.3c-0.4,0.4-0.9,0.8-1.6,1.1c-0.7,0.3-1.5,0.6-2.4,0.8c-0.9,0.2-1.9,0.3-2.9,0.3c-3.7,0-6.6-1-8.8-3
		c-2.1-2-3.2-4.9-3.2-8.8c0-1.8,0.3-3.4,0.8-4.8c0.5-1.4,1.3-2.6,2.2-3.6c0.9-1,2.1-1.7,3.4-2.3c1.3-0.5,2.7-0.8,4.2-0.8
		c1.4,0,2.8,0.2,4,0.7c1.2,0.5,2.3,1.2,3.1,2c0.9,0.9,1.6,1.9,2.1,3.1c0.5,1.2,0.7,2.5,0.7,3.9c0,0.7-0.2,1.2-0.5,1.5
		c-0.3,0.3-0.8,0.5-1.3,0.5L246.7,72.5z M253.3,61.7c-1.9,0-3.5,0.7-4.8,2c-1.3,1.4-1.9,3.3-2,5.8l13.1-1.8
		c-0.2-1.7-0.8-3.2-1.8-4.3C256.7,62.3,255.2,61.7,253.3,61.7z"/>
</g>
<g>
	<circle class="st2" cx="367.4" cy="66.2" r="33.5"/>
	<path class="st0" d="M386.4,39.5c15.2-13.7,26.4-22,28-20.4c2.4,2.4-16.7,25.4-42.7,51.4c-26,26-49,45.1-51.4,42.7
		c-1.6-1.6,6.5-12.6,19.8-27.4"/>
</g>
<text transform="matrix(1 0 0 1 417.9351 81.2896)" style="fill:#231F20; font-family:'BalooBhaina2-Regular'; font-size:47.7304;">Satélite</text>
</svg>
