<svg version="1.2" baseProfile="tiny-ps" xmlns="http://www.w3.org/2000/svg" viewBox="0 0 732 732" width="732" height="732">
	<title>Logo</title>
	<style>
		tspan { white-space:pre }
		.shp0 { fill: #000000 } 
	</style>
	<g id="Layer">
		<path id="Layer" class="shp0" d="M513.4 198.8L509.4 194.3C547 160.6 579.2 133.5 602.7 116C637 90.5 645.2 90.5 649 94.2L644.8 98.4C644.9 98.5 644.9 98.5 644.9 98.5C644.3 98.2 638.3 96.8 604.1 122.5C581 139.9 549.6 166.3 513.4 198.8Z" />
	</g>
	<g id="Layer">
		<path id="Layer" class="shp0" d="M103.3 639.9C99.5 636.1 99.6 627.9 125.1 593.6C142.6 570.1 169.6 537.8 203.4 500.3L207.9 504.3C175.4 540.5 149 571.9 131.6 595C105.9 629.1 107.4 635.2 107.6 635.8C107.6 635.8 107.6 635.7 107.5 635.7L103.3 639.9Z" />
	</g>
	<g id="Layer">
		<path id="Layer" fill-rule="evenodd" class="shp0" d="M376.1 590.2C316.5 590.2 260.5 567 218.3 524.8C176.2 482.7 152.9 426.6 152.9 367C152.9 307.4 176.1 251.4 218.3 209.2C260.4 167.1 316.5 143.8 376.1 143.8C435.7 143.8 491.7 167 533.9 209.2C576 251.3 599.3 307.4 599.3 367C599.3 426.6 576.1 482.6 533.9 524.8C491.8 567 435.7 590.2 376.1 590.2ZM376.1 154.9C319.4 154.9 266.2 177 226.1 217C143.4 299.7 143.4 434.3 226.1 517C266.2 557.1 319.4 579.1 376.1 579.1C432.8 579.1 486 557 526.1 517C608.8 434.3 608.8 299.7 526.1 217C486.1 177 432.8 154.9 376.1 154.9Z" />
	</g>
	<g id="Layer">
		<path id="Layer" class="shp0" d="M107.8 642.2C105.5 642.2 104 641.4 102.9 640.3L107.8 635.4C107.7 635.3 107.5 635.2 107.5 635.2C108.7 635.6 121.1 636.6 201.6 567.5C256.1 520.7 324.8 456.2 395 386C465.2 315.8 529.7 247.1 576.5 192.6C645.6 112.1 644.6 99.7 644.2 98.5C644.2 98.5 644.3 98.7 644.4 98.8L649.3 93.8C652.6 97.1 653.4 103.6 636.8 127.8C625.6 144.1 608.3 166 585.3 192.9C538.1 248.1 472.3 318.4 399.9 390.8C327.5 463.2 257.2 529 202 576.2C175.1 599.2 153.2 616.5 136.9 627.7C120.7 638.9 112.5 642.2 107.8 642.2Z" />
	</g>
</svg>